<mxfile host="app.diagrams.net" modified="2023-04-14T06:55:01.623Z" agent="Mozilla/5.0 (Windows NT 10.0; Win64; x64) AppleWebKit/537.36 (KHTML, like Gecko) Chrome/112.0.0.0 Safari/537.36 Edg/112.0.1722.39" version="21.1.7" etag="czM3g8Gqa_xJ9NKzQCGx" type="github">
  <diagram name="Страница 1" id="p27JUwvm5M4ZzsYuVRgJ">
    <mxGraphModel>
      <root>
        <mxCell id="0" />
        <mxCell id="1" parent="0" />
      </root>
    </mxGraphModel>
  </diagram>
</mxfile>
